<?xml version="1.0" standalone="no"?>
<!DOCTYPE svg PUBLIC "-//W3C//DTD SVG 20010904//EN"
 "http://www.w3.org/TR/2001/REC-SVG-20010904/DTD/svg10.dtd">
<svg version="1.0" xmlns="http://www.w3.org/2000/svg"
 width="512.000000pt" height="512.000000pt" viewBox="0 0 512.000000 512.000000"
 preserveAspectRatio="xMidYMid meet">
<metadata>
Created by potrace 1.11, written by Peter Selinger 2001-2013
</metadata>
<g transform="translate(0.000000,512.000000) scale(0.100000,-0.100000)"
fill="#000000" stroke="none">
<path d="M2428 5115 c-2 -1 -23 -5 -48 -8 -109 -14 -140 -20 -220 -42 -91 -26
-172 -53 -232 -79 -21 -9 -40 -16 -43 -16 -3 0 -22 -10 -42 -21 -21 -12 -56
-30 -78 -42 -135 -71 -288 -188 -417 -320 -244 -248 -419 -589 -472 -920 -32
-193 -27 -475 9 -635 8 -34 17 -75 20 -91 16 -90 134 -372 195 -466 11 -16 23
-37 27 -45 17 -39 152 -205 238 -295 215 -223 308 -361 392 -578 l28 -72 5
-547 5 -547 23 -23 c19 -20 35 -24 106 -26 l84 -4 68 -91 c110 -151 164 -199
254 -229 68 -23 375 -25 450 -3 70 21 136 65 177 119 18 24 41 52 50 64 10 11
38 48 62 81 l43 61 69 1 c38 1 72 2 77 3 33 8 51 20 60 41 8 17 11 184 12 545
0 306 4 530 10 545 5 14 8 25 5 25 -9 0 36 114 80 203 56 113 159 253 280 379
50 52 112 119 138 149 57 64 180 247 229 340 75 141 155 383 174 524 3 28 8
59 11 70 9 42 11 314 2 390 -88 784 -665 1405 -1432 1541 -77 14 -388 29 -399
19z"/>
</g>
</svg>
